HIERARCHY
ROOT Hips
{
	OFFSET 0.000000 0.000000 0.000000
	CHANNELS 6 Xposition Yposition Zposition Yrotation Xrotation Zrotation
	JOINT Chest
	{
		OFFSET 0.000000 -0.009281 11.569106
		CHANNELS 3 Yrotation Xrotation Zrotation
		JOINT Chest2
		{
			OFFSET -0.000000 0.016865 9.269641
			CHANNELS 3 Yrotation Xrotation Zrotation
			JOINT Chest3
			{
				OFFSET -0.000000 0.000001 8.374491
				CHANNELS 3 Yrotation Xrotation Zrotation
				JOINT Chest4
				{
					OFFSET -0.000000 0.000001 8.374493
					CHANNELS 3 Yrotation Xrotation Zrotation
					JOINT Neck
					{
						OFFSET -0.000000 0.000002 12.152554
						CHANNELS 3 Yrotation Xrotation Zrotation
						JOINT Head
						{
							OFFSET -0.000000 0.040101 7.802319
							CHANNELS 3 Yrotation Xrotation Zrotation
							End Site
							{
								OFFSET -0.000000 0.020947 14.853096
							}
						}
					}
					JOINT RightCollar
					{
						OFFSET 2.894404 0.000001 6.791374
						CHANNELS 3 Yrotation Xrotation Zrotation
						JOINT RightShoulder
						{
							OFFSET 13.574684 0.000001 0.000000
							CHANNELS 3 Yrotation Xrotation Zrotation
							JOINT RightElbow
							{
								OFFSET 23.923903 0.000002 0.000000
								CHANNELS 3 Yrotation Xrotation Zrotation
								JOINT RightWrist
								{
									OFFSET 19.846718 0.012767 0.000000
									CHANNELS 3 Yrotation Xrotation Zrotation
									End Site
									{
										OFFSET 14.973145 0.000001 0.000000
									}
								}
							}
						}
					}
					JOINT LeftCollar
					{
						OFFSET -2.894404 0.000001 6.791374
						CHANNELS 3 Yrotation Xrotation Zrotation
						JOINT LeftShoulder
						{
							OFFSET -13.574684 -0.000001 0.000000
							CHANNELS 3 Yrotation Xrotation Zrotation
							JOINT LeftElbow
							{
								OFFSET -23.923903 -0.000002 0.000000
								CHANNELS 3 Yrotation Xrotation Zrotation
								JOINT LeftWrist
								{
									OFFSET -19.846718 0.012763 0.000000
									CHANNELS 3 Yrotation Xrotation Zrotation
									End Site
									{
										OFFSET -14.973145 -0.000001 0.000000
									}
								}
							}
						}
					}
				}
			}
		}
	}
	JOINT RightHip
	{
		OFFSET 9.469263 0.004643 0.045487
		CHANNELS 3 Yrotation Xrotation Zrotation
		JOINT RightKnee
		{
			OFFSET 0.000000 0.002661 -40.478676
			CHANNELS 3 Yrotation Xrotation Zrotation
			JOINT RightAnkle
			{
				OFFSET 0.000000 0.049106 -35.224068
				CHANNELS 3 Yrotation Xrotation Zrotation
				JOINT RightToe
				{
					OFFSET -0.000001 12.539529 -6.151390
					CHANNELS 3 Yrotation Xrotation Zrotation
					End Site
					{
						OFFSET -0.000001 5.044994 -1.291870
					}
				}
			}
		}
	}
	JOINT LeftHip
	{
		OFFSET -9.469263 0.004641 0.045487
		CHANNELS 3 Yrotation Xrotation Zrotation
		JOINT LeftKnee
		{
			OFFSET 0.000000 0.002661 -40.478676
			CHANNELS 3 Yrotation Xrotation Zrotation
			JOINT LeftAnkle
			{
				OFFSET 0.000000 0.049106 -35.224068
				CHANNELS 3 Yrotation Xrotation Zrotation
				JOINT LeftToe
				{
					OFFSET -0.000001 12.539529 -6.151390
					CHANNELS 3 Yrotation Xrotation Zrotation
					End Site
					{
						OFFSET -0.000001 5.044994 -1.291870
					}
				}
			}
		}
	}
}
MOTION
Frames: 5
Frame Time: 0.016667
20.532881 7.073986 83.147873 -7.696220 -3.556233 -108.891151 -2.890920 -2.604840 6.492650 -1.250078 -1.195490 2.858525 -1.250078 -1.195490 2.858526 -0.931956 -0.902493 2.141381 6.731872 -15.236053 -24.288125 3.956867 6.577901 -42.805424 -0.541510 1.305904 -11.057216 79.646570 35.839300 84.193816 58.430533 45.604780 67.906212 -53.795728 40.046615 1.898389 -6.489805 -12.142841 -22.990290 -64.707771 -11.527496 -36.266266 -55.741051 -15.900347 -33.503673 21.788534 35.997252 14.144094 0.592241 -11.273931 -8.739353 1.923530 -5.094084 -2.819543 -0.517634 7.438999 0.601100 0.119989 -0.001192 -0.002561 1.804238 -10.550910 -3.076257 0.304567 -2.509448 -5.179350 -1.591274 4.745147 2.003413 -0.211972 -0.062749 0.003596 
20.512508 7.073166 83.142578 -7.740100 -3.552357 -108.810412 -2.896826 -2.623669 6.479151 -1.252364 -1.203033 2.851141 -1.252364 -1.203033 2.851141 -0.933649 -0.908145 2.135823 6.745237 -15.250482 -24.324534 3.974218 6.549334 -42.865820 -0.550154 1.324985 -11.070289 79.583424 35.870487 84.116566 58.404101 45.543937 67.868694 -54.464700 39.850356 1.439852 -6.453950 -12.215903 -23.031106 -64.514490 -11.671883 -36.302332 -55.989714 -16.178915 -33.613724 19.411806 35.822020 13.522906 0.583416 -11.247250 -8.761111 1.941520 -5.226250 -2.805498 -0.578085 7.502424 0.527984 0.125689 0.002018 -0.000694 1.785478 -10.501823 -3.096752 0.332043 -2.650397 -5.251254 -1.545885 4.808591 2.030563 -0.211950 -0.062031 0.001159 
20.499805 7.074048 83.138405 -7.774537 -3.544941 -108.726851 -2.902237 -2.636656 6.459636 -1.254019 -1.208242 2.841712 -1.254019 -1.208242 2.841712 -0.934884 -0.912039 2.128736 6.749736 -15.254533 -24.351144 3.975543 6.538584 -42.912917 -0.571778 1.325588 -11.093118 79.571615 35.902234 84.100222 58.442623 45.568427 67.827911 -54.794581 39.610436 1.118921 -6.401676 -12.362231 -23.080746 -64.550663 -11.691746 -36.346182 -56.127605 -16.594501 -34.000149 16.873844 35.168893 13.222824 0.574204 -11.235601 -8.802323 1.959973 -5.315806 -2.783939 -0.627914 7.547243 0.459401 0.124254 0.004882 0.000353 1.767953 -10.461412 -3.120733 0.357462 -2.759107 -5.304925 -1.511164 4.854578 2.016320 -0.204133 -0.058520 -0.001174 
20.494923 7.070529 83.135468 -7.794380 -3.531345 -108.642444 -2.921080 -2.652274 6.439452 -1.262212 -1.214630 2.832002 -1.262211 -1.214631 2.832003 -0.941017 -0.916850 2.121423 6.763637 -15.238919 -24.372174 3.989917 6.566959 -42.949391 -0.589677 1.367895 -11.127694 79.565994 35.915252 84.041564 58.447172 45.591854 67.789983 -54.839172 39.411165 0.854978 -6.383217 -12.470016 -23.109388 -64.762426 -11.476579 -36.432150 -56.324025 -17.232118 -34.265474 14.193026 34.598911 12.741321 0.567284 -11.237242 -8.846999 1.978134 -5.355203 -2.783864 -0.666443 7.572757 0.414229 0.117100 0.006093 0.000789 1.752616 -10.431947 -3.142948 0.379216 -2.822071 -5.338720 -1.494464 4.879533 2.005252 -0.184693 -0.054052 -0.001343 
20.496967 7.063725 83.134315 -7.802527 -3.513437 -108.558555 -2.960255 -2.663309 6.435908 -1.279207 -1.219822 2.828804 -1.279206 -1.219823 2.828807 -0.953746 -0.920817 2.118981 6.802637 -15.219613 -24.404720 4.045116 6.607269 -42.998718 -0.573206 1.397181 -11.159475 79.523899 35.968015 83.955019 58.460313 45.592845 67.810043 -54.757278 39.234505 0.672099 -6.380295 -12.510630 -23.128998 -64.897036 -11.242013 -36.591806 -56.636017 -17.914903 -34.545567 11.325898 34.318777 11.746396 0.566426 -11.252246 -8.884651 1.989183 -5.353768 -2.804657 -0.689671 7.581460 0.390087 0.104619 0.009497 0.001344 1.750570 -10.422480 -3.157591 0.385856 -2.826762 -5.366553 -1.493743 4.875409 1.975283 -0.156259 -0.047653 -0.001516 
